<?xml version="1.0" standalone="no"?>
<!DOCTYPE svg PUBLIC "-//W3C//DTD SVG 20010904//EN"
 "http://www.w3.org/TR/2001/REC-SVG-20010904/DTD/svg10.dtd">
<svg version="1.0" xmlns="http://www.w3.org/2000/svg"
 width="500.000000pt" height="500.000000pt" viewBox="0 0 500.000000 500.000000"
 preserveAspectRatio="xMidYMid meet">

<g transform="translate(0.000000,500.000000) scale(0.100000,-0.100000)"
fill="#000000" stroke="none">
<path d="M2421 3969 c-25 -11 -149 -80 -275 -153 -127 -74 -458 -265 -736
-426 -537 -311 -580 -338 -605 -372 -32 -47 -14 -79 88 -147 l47 -32 0 -183 0
-184 -35 -35 c-40 -40 -45 -78 -19 -130 14 -27 17 -63 15 -239 l-2 -208 81 0
81 0 -2 210 c-2 186 0 214 16 244 24 45 14 97 -26 130 l-29 25 2 212 3 211
690 400 c380 220 708 409 729 420 49 25 79 20 157 -28 l59 -35 0 -200 0 -200
-46 27 c-64 37 -138 37 -219 0 -126 -57 -687 -390 -714 -423 -14 -18 -33 -55
-41 -83 l-15 -50 -165 96 c-91 53 -175 101 -187 106 -17 9 -35 3 -98 -33 l-76
-43 3 -50 3 -49 226 -131 c124 -72 242 -141 262 -153 l37 -22 0 -272 c0 -272
0 -272 25 -315 34 -58 75 -86 445 -300 361 -208 370 -212 471 -176 78 27 697
387 736 427 55 58 63 107 63 389 l0 251 336 194 c502 290 518 302 494 362 -20
47 -13 43 -795 494 -236 137 -515 298 -620 359 -254 147 -278 155 -364 115z
m637 -548 l72 -42 -2 -688 -3 -688 -28 -37 c-24 -31 -116 -100 -124 -93 -1 2
8 36 20 77 30 99 21 144 -17 85 -9 -14 -23 -25 -31 -25 -8 0 -16 -4 -16 -10
-1 -5 -3 -23 -5 -40 -8 -60 -8 -75 -1 -95 6 -17 -19 -35 -196 -137 -112 -64
-209 -120 -217 -123 -17 -6 -540 293 -583 333 -61 57 -62 63 -65 359 -4 322 2
367 57 421 43 43 477 295 538 313 59 17 113 -3 291 -107 79 -46 146 -84 148
-84 2 0 4 151 4 336 l0 336 43 -25 c23 -13 75 -43 115 -66z m585 -336 c104
-59 156 -95 154 -105 -1 -8 -79 -59 -172 -113 -94 -54 -189 -110 -212 -123
l-43 -25 0 261 0 261 58 -33 c32 -18 129 -73 215 -123z"/>
<path d="M2296 2873 c-21 -3 -49 -11 -62 -19 -13 -9 -36 -14 -52 -13 -21 3
-36 -5 -60 -29 -18 -18 -32 -41 -32 -52 0 -10 -15 -31 -34 -45 -49 -38 -78
-96 -70 -144 3 -22 2 -46 -3 -56 -17 -30 -2 -63 58 -124 l59 -59 58 4 c31 2
77 10 100 16 38 11 45 11 56 -4 7 -9 25 -18 41 -20 28 -3 30 -5 30 -49 0 -30
6 -54 17 -65 40 -44 56 -127 34 -169 -21 -39 -20 -58 3 -103 11 -21 23 -55 27
-77 4 -21 16 -54 27 -73 11 -18 23 -48 27 -65 6 -29 10 -32 41 -31 83 2 106
13 145 66 21 28 38 58 39 67 0 9 11 27 23 39 16 16 20 29 16 50 -5 25 0 34 38
65 39 32 44 41 42 74 0 21 -4 45 -7 53 -24 67 -11 97 71 169 53 47 115 142
100 156 -2 3 -27 1 -54 -4 -48 -9 -81 0 -69 20 3 4 -8 18 -25 31 -17 12 -40
43 -52 68 -11 25 -25 53 -30 64 -24 45 -47 107 -39 102 12 -8 20 15 12 34 -4
11 -23 15 -67 16 -34 1 -76 9 -97 19 -37 17 -57 14 -57 -10 0 -26 -21 -26 -65
-1 -24 14 -50 26 -58 26 -19 0 -41 26 -28 34 5 3 7 15 4 26 -6 21 -16 22 -107
13z"/>
<path d="M1988 1270 c-77 -23 -128 -95 -128 -179 0 -119 73 -191 193 -191 165
0 246 203 128 321 -51 51 -124 70 -193 49z m127 -105 c20 -19 25 -34 25 -75 0
-44 -5 -56 -29 -81 -62 -62 -161 -19 -161 71 0 74 31 109 98 110 32 0 49 -6
67 -25z"/>
<path d="M621 1092 c-33 -97 -61 -181 -61 -185 0 -4 20 -7 46 -7 41 0 46 3 55
30 11 29 12 30 80 30 69 0 70 0 76 -30 5 -29 8 -30 55 -30 36 0 49 4 46 13 -3
6 -31 90 -63 185 l-59 172 -56 0 -57 0 -62 -178z m142 5 c9 -30 17 -57 17 -60
0 -4 -18 -7 -40 -7 -22 0 -40 3 -40 7 0 16 34 113 40 113 3 0 14 -24 23 -53z"/>
<path d="M1050 1085 l0 -185 45 0 45 0 0 75 0 75 55 0 55 0 0 35 0 35 -55 0
-55 0 0 40 0 40 75 0 75 0 0 35 0 35 -120 0 -120 0 0 -185z"/>
<path d="M1440 1086 l0 -186 45 0 45 0 0 70 c0 39 3 70 8 70 4 0 25 -32 46
-70 l40 -70 53 0 c30 0 52 3 50 8 -3 4 -23 37 -46 75 l-41 67 26 12 c59 27 72
117 25 170 l-29 33 -111 3 -111 4 0 -186z m178 102 c18 -18 14 -56 -7 -68 -11
-5 -33 -10 -50 -10 -30 0 -31 1 -31 45 l0 45 38 0 c21 0 43 -5 50 -12z"/>
<path d="M2380 1085 l0 -185 100 0 c146 0 190 24 190 101 0 23 -9 40 -36 65
-19 19 -31 34 -25 34 22 0 51 41 51 71 0 76 -42 99 -180 99 l-100 0 0 -185z
m188 86 c5 -31 -21 -51 -65 -51 -32 0 -33 1 -33 41 l0 40 48 -3 c41 -3 47 -6
50 -27z m6 -143 c19 -30 -4 -53 -58 -56 l-46 -3 0 41 0 41 46 -3 c31 -2 51 -9
58 -20z"/>
<path d="M2820 1086 l0 -186 45 0 45 0 0 70 c0 39 3 70 8 70 4 0 25 -32 46
-70 l40 -70 53 0 c30 0 52 3 50 8 -3 4 -23 37 -46 75 l-41 67 26 12 c59 27 72
117 25 170 l-29 33 -111 3 -111 4 0 -186z m178 102 c18 -18 14 -56 -7 -68 -11
-5 -33 -10 -50 -10 -30 0 -31 1 -31 45 l0 45 38 0 c21 0 43 -5 50 -12z"/>
<path d="M3336 1228 c-9 -24 -38 -107 -65 -185 l-49 -143 48 0 c44 0 49 2 59
30 10 29 11 30 80 30 69 0 69 0 76 -30 6 -28 9 -30 57 -30 27 0 48 4 46 9 -1
5 -30 88 -63 185 l-60 176 -57 0 -56 0 -16 -42z m90 -120 c9 -29 19 -59 22
-65 3 -9 -9 -13 -41 -13 l-45 0 21 65 c12 36 22 65 23 65 1 0 10 -24 20 -52z"/>
<path d="M3704 1208 c13 -35 42 -118 66 -185 l43 -123 57 0 57 0 32 90 c17 49
47 132 66 185 l34 95 -49 0 -49 0 -43 -135 c-24 -74 -45 -135 -48 -135 -3 0
-24 61 -48 135 l-43 135 -49 0 -49 0 23 -62z"/>
<path d="M4190 1085 l0 -185 110 0 110 0 0 35 0 35 -65 0 -65 0 0 45 0 45 60
0 60 0 0 30 0 30 -60 0 -60 0 0 40 c0 44 -2 43 78 40 l52 -1 0 35 0 36 -110 0
-110 0 0 -185z"/>
</g>
</svg>
